# xmcd
#
# Track frame offsets:
#	150
#	19786
#	42599
#	60426
#	80775
#	98778
#	117908
#	135185
#	155084
#	169083
#	193891
#
# Disc length: 2910 seconds
#
# Revision: 1
# Processed by: cddbd v1.5.1PL0 Copyright (c) Steve Scherf et al.
# Submitted via: audiograbber 1.83.01
#
DISCID=910b5c0b
DTITLE=SummerTime Blues Band - Picture Perfect
DYEAR=2003
DGENRE=Blues
TTITLE0=Picture Perfect
TTITLE1=Honey Bee
TTITLE2=Thrill Ride
TTITLE3=Sleepin' With The Blues
TTITLE4=Fast Lane Blues
TTITLE5=My Drink (Is On Its Way)
TTITLE6=Cold Chiseled Love
TTITLE7=Walkin' The Dog
TTITLE8=Sweet Matilda
TTITLE9=Every Day I Have The Blues
TTITLE10=Mid-Love Crisis
EXTD=
EXTT0=
EXTT1=
EXTT2=
EXTT3=
EXTT4=
EXTT5=
EXTT6=
EXTT7=
EXTT8=
EXTT9=
EXTT10=
PLAYORDER=
